# xmcd
#
# Track frame offsets:
#	150
#	14873
#	31335
#	40309
#	49190
#	62362
#	70861
#	80809
#	87147
#	96025
#	108701
#	118025
#	125251
#	128399
#	133638
#
# Disc length: 1861 seconds
#
# Revision: 0
# Processed by: cddbd v1.5.2PL0 Copyright (c) Steve Scherf et al.
# Submitted via: audiograbber 1.83.01
#
DISCID=ca07430f
DTITLE=Jamie Martin - Miss Jaime's Farm
DYEAR=1900
DGENRE=Children
TTITLE0=We're On Our Way to Miss Jaime's Farm
TTITLE1=Let's All Shake Our Shaker Eggs
TTITLE2=Happy Chickens Lay Yummy Eggs
TTITLE3=Head Shoulders Knees and Toes
TTITLE4=You Are My Sunshine
TTITLE5=Keepin It Pesticide Free
TTITLE6=Five Baby Ducks
TTITLE7=Excercise Excercise
TTITLE8=Old MacDonald's Farm
TTITLE9=B-I-N-G-O
TTITLE10=The Twinkle Trio
TTITLE11=Farm Hokey Pokey
TTITLE12=Forever Farmhand
TTITLE13=If You Are Happy and You Know It
TTITLE14=Goodbye To Miss Jaime's Farm
EXTD=
EXTT0=
EXTT1=
EXTT2=
EXTT3=
EXTT4=
EXTT5=
EXTT6=
EXTT7=
EXTT8=
EXTT9=
EXTT10=
EXTT11=
EXTT12=
EXTT13=
EXTT14=
PLAYORDER=
